<mxfile host="65bd71144e">
    <diagram id="Omz8NuV_Lej0NusEcTPA" name="Page-1">
        <mxGraphModel dx="1099" dy="741" grid="1" gridSize="10" guides="1" tooltips="1" connect="1" arrows="1" fold="1" page="1" pageScale="1" pageWidth="827" pageHeight="1169" math="0" shadow="0">
            <root>
                <mxCell id="0"/>
                <mxCell id="1" parent="0"/>
                <mxCell id="237" style="edgeStyle=none;shape=connector;rounded=1;html=1;exitX=1;exitY=0.5;exitDx=0;exitDy=0;entryX=1;entryY=0.115;entryDx=0;entryDy=0;entryPerimeter=0;labelBackgroundColor=default;fontFamily=Helvetica;fontSize=11;fontColor=default;endArrow=none;endFill=0;strokeColor=#CC0000;" parent="1" source="2" target="12" edge="1">
                    <mxGeometry relative="1" as="geometry">
                        <Array as="points">
                            <mxPoint x="650" y="177"/>
                        </Array>
                    </mxGeometry>
                </mxCell>
                <mxCell id="238" style="edgeStyle=none;shape=connector;rounded=1;html=1;exitX=0;exitY=0.5;exitDx=0;exitDy=0;entryX=1;entryY=0.57;entryDx=0;entryDy=0;entryPerimeter=0;labelBackgroundColor=default;fontFamily=Helvetica;fontSize=11;fontColor=default;endArrow=none;endFill=0;strokeColor=default;" parent="1" source="2" target="4" edge="1">
                    <mxGeometry relative="1" as="geometry">
                        <Array as="points">
                            <mxPoint x="650" y="410"/>
                        </Array>
                    </mxGeometry>
                </mxCell>
                <mxCell id="2" value="" style="pointerEvents=1;verticalLabelPosition=bottom;shadow=0;dashed=0;align=center;html=1;verticalAlign=top;shape=mxgraph.electrical.miscellaneous.batteryStack;direction=north;" parent="1" vertex="1">
                    <mxGeometry x="620" y="200" width="60" height="100" as="geometry"/>
                </mxCell>
                <mxCell id="192" style="edgeStyle=none;html=1;exitX=0;exitY=0.5;exitDx=0;exitDy=0;exitPerimeter=0;entryX=0;entryY=0.57;entryDx=0;entryDy=0;entryPerimeter=0;endArrow=none;endFill=0;" parent="1" source="3" target="4" edge="1">
                    <mxGeometry relative="1" as="geometry"/>
                </mxCell>
                <mxCell id="3" value="" style="pointerEvents=1;verticalLabelPosition=bottom;shadow=0;dashed=0;align=center;html=1;verticalAlign=top;shape=mxgraph.electrical.resistors.resistor_2;direction=west;" parent="1" vertex="1">
                    <mxGeometry x="252" y="400" width="96" height="20" as="geometry"/>
                </mxCell>
                <mxCell id="4" value="" style="verticalLabelPosition=bottom;shadow=0;dashed=0;align=center;html=1;verticalAlign=top;shape=mxgraph.electrical.opto_electronics.led_2;pointerEvents=1;direction=east;flipV=0;flipH=0;" parent="1" vertex="1">
                    <mxGeometry x="428" y="370" width="100" height="70" as="geometry"/>
                </mxCell>
                <mxCell id="8" value="5 V" style="text;html=1;align=center;verticalAlign=middle;resizable=0;points=[];autosize=1;strokeColor=none;fillColor=none;fontSize=11;fontFamily=Helvetica;fontColor=default;" parent="1" vertex="1">
                    <mxGeometry x="680" y="250" width="30" height="20" as="geometry"/>
                </mxCell>
                <mxCell id="9" value="220&amp;nbsp;&amp;nbsp;Î©" style="text;html=1;align=center;verticalAlign=middle;resizable=0;points=[];autosize=1;strokeColor=none;fillColor=none;fontSize=11;fontFamily=Helvetica;fontColor=default;" parent="1" vertex="1">
                    <mxGeometry x="275" y="370" width="50" height="20" as="geometry"/>
                </mxCell>
                <mxCell id="10" value="Output" style="text;html=1;align=center;verticalAlign=middle;resizable=0;points=[];autosize=1;strokeColor=none;fillColor=none;fontSize=11;fontFamily=Helvetica;fontColor=default;" parent="1" vertex="1">
                    <mxGeometry x="440" y="360" width="50" height="20" as="geometry"/>
                </mxCell>
                <mxCell id="11" value="&lt;font&gt;&lt;span style=&quot;font-size: 14px&quot;&gt;Nina Mathew&lt;/span&gt;&lt;br&gt;&lt;span style=&quot;font-size: 14px&quot;&gt;TEJ3M Unit #4-17&lt;/span&gt;&lt;br&gt;&lt;div&gt;&lt;span style=&quot;font-size: 14px&quot;&gt;1/2 Adder circuit with an IC chip&lt;/span&gt;&lt;/div&gt;&lt;div style=&quot;font-size: 14px&quot;&gt;&lt;br&gt;&lt;/div&gt;&lt;/font&gt;" style="text;html=1;align=center;verticalAlign=middle;resizable=0;points=[];autosize=1;strokeColor=none;fillColor=none;fontSize=11;fontFamily=Helvetica;fontColor=default;" parent="1" vertex="1">
                    <mxGeometry x="127" y="70" width="210" height="60" as="geometry"/>
                </mxCell>
                <mxCell id="181" style="edgeStyle=none;shape=connector;rounded=1;html=1;exitX=1;exitY=0.885;exitDx=0;exitDy=0;exitPerimeter=0;entryX=1;entryY=0.885;entryDx=0;entryDy=0;entryPerimeter=0;labelBackgroundColor=default;fontFamily=Helvetica;fontSize=11;fontColor=default;endArrow=none;endFill=0;strokeColor=#000000;" parent="1" source="12" target="134" edge="1">
                    <mxGeometry relative="1" as="geometry">
                        <Array as="points">
                            <mxPoint x="610" y="240"/>
                            <mxPoint x="610" y="297"/>
                        </Array>
                    </mxGeometry>
                </mxCell>
                <mxCell id="12" value="" style="pointerEvents=1;verticalLabelPosition=bottom;shadow=0;dashed=0;align=center;html=1;verticalAlign=top;shape=mxgraph.electrical.electro-mechanical.2-way_switch;direction=east;" parent="1" vertex="1">
                    <mxGeometry x="507.5" y="174" width="75" height="26" as="geometry"/>
                </mxCell>
                <mxCell id="13" value="+" style="text;html=1;align=center;verticalAlign=middle;resizable=0;points=[];autosize=1;strokeColor=none;fillColor=none;" parent="1" vertex="1">
                    <mxGeometry x="660" y="190" width="20" height="20" as="geometry"/>
                </mxCell>
                <mxCell id="14" value="-" style="text;html=1;align=center;verticalAlign=middle;resizable=0;points=[];autosize=1;strokeColor=none;fillColor=none;" parent="1" vertex="1">
                    <mxGeometry x="660" y="290" width="20" height="20" as="geometry"/>
                </mxCell>
                <mxCell id="43" value="Input A" style="text;html=1;align=center;verticalAlign=middle;resizable=0;points=[];autosize=1;strokeColor=none;fillColor=none;fontSize=11;fontFamily=Helvetica;fontColor=default;" parent="1" vertex="1">
                    <mxGeometry x="510" y="150" width="50" height="20" as="geometry"/>
                </mxCell>
                <mxCell id="190" style="edgeStyle=none;html=1;exitX=1;exitY=0.885;exitDx=0;exitDy=0;exitPerimeter=0;endArrow=none;endFill=0;" parent="1" source="134" edge="1">
                    <mxGeometry relative="1" as="geometry">
                        <mxPoint x="580" y="410" as="targetPoint"/>
                    </mxGeometry>
                </mxCell>
                <mxCell id="240" style="edgeStyle=none;shape=connector;rounded=1;html=1;exitX=1;exitY=0.115;exitDx=0;exitDy=0;exitPerimeter=0;labelBackgroundColor=default;fontFamily=Helvetica;fontSize=11;fontColor=default;endArrow=none;endFill=0;strokeColor=#CC0000;entryX=1;entryY=0.115;entryDx=0;entryDy=0;entryPerimeter=0;" parent="1" source="134" target="12" edge="1">
                    <mxGeometry relative="1" as="geometry">
                        <mxPoint x="595" y="180" as="targetPoint"/>
                    </mxGeometry>
                </mxCell>
                <mxCell id="134" value="" style="pointerEvents=1;verticalLabelPosition=bottom;shadow=0;dashed=0;align=center;html=1;verticalAlign=top;shape=mxgraph.electrical.electro-mechanical.2-way_switch;direction=east;" parent="1" vertex="1">
                    <mxGeometry x="507.5" y="274" width="75" height="26" as="geometry"/>
                </mxCell>
                <mxCell id="177" value="Input B" style="text;html=1;align=center;verticalAlign=middle;resizable=0;points=[];autosize=1;strokeColor=none;fillColor=none;fontSize=11;fontFamily=Helvetica;fontColor=default;" parent="1" vertex="1">
                    <mxGeometry x="520" y="240" width="50" height="20" as="geometry"/>
                </mxCell>
                <mxCell id="233" style="edgeStyle=none;shape=connector;rounded=1;html=1;exitX=0;exitY=0.75;exitDx=0;exitDy=0;exitPerimeter=0;entryX=0;entryY=0.885;entryDx=0;entryDy=0;entryPerimeter=0;labelBackgroundColor=default;fontFamily=Helvetica;fontSize=11;fontColor=default;endArrow=none;endFill=0;strokeColor=#CC6600;" parent="1" source="246" target="12" edge="1">
                    <mxGeometry relative="1" as="geometry">
                        <Array as="points">
                            <mxPoint x="508" y="160"/>
                        </Array>
                        <mxPoint x="422" y="160" as="sourcePoint"/>
                    </mxGeometry>
                </mxCell>
                <mxCell id="235" style="edgeStyle=none;shape=connector;rounded=1;html=1;entryX=0;entryY=0.885;entryDx=0;entryDy=0;entryPerimeter=0;labelBackgroundColor=default;fontFamily=Helvetica;fontSize=11;fontColor=default;endArrow=none;endFill=0;strokeColor=#000066;exitX=0;exitY=0.25;exitDx=0;exitDy=0;exitPerimeter=0;" parent="1" source="247" target="134" edge="1">
                    <mxGeometry relative="1" as="geometry">
                        <Array as="points">
                            <mxPoint x="508" y="335"/>
                        </Array>
                        <mxPoint x="440" y="350" as="sourcePoint"/>
                    </mxGeometry>
                </mxCell>
                <mxCell id="236" style="edgeStyle=none;shape=connector;rounded=1;html=1;exitX=1;exitY=0.5;exitDx=0;exitDy=0;exitPerimeter=0;entryX=1;entryY=0.5;entryDx=0;entryDy=0;entryPerimeter=0;labelBackgroundColor=default;fontFamily=Helvetica;fontSize=11;fontColor=default;endArrow=none;endFill=0;strokeColor=default;" parent="1" source="246" target="3" edge="1">
                    <mxGeometry relative="1" as="geometry">
                        <Array as="points">
                            <mxPoint x="70" y="170"/>
                            <mxPoint x="70" y="410"/>
                        </Array>
                        <mxPoint x="70" y="260" as="sourcePoint"/>
                    </mxGeometry>
                </mxCell>
                <mxCell id="245" value="" style="shape=image;verticalLabelPosition=bottom;labelBackgroundColor=#ffffff;verticalAlign=top;aspect=fixed;imageAspect=0;image=data:image/png,iVBORw0KGgoAAAANSUhEUgAAA+UAAAGSCAIAAAAKGfeNAAAgAElEQVR4nOzdaXMb150v/m50Y9/3hQDBBdy0kKIkU7IWx0nsJI7HSe64pjL3Vs19MFWZVzCvZJ7MC8i/aiqVuZlM4iXx2Ik0jiyJoijuIkFwB7HvQAPd6O3/4MQIRwstx7QBm9/PVE1ZZAM8Yn4Cvjh9zu/QqqpSAAAAAADQkzTdHgAAAAAAADwX8joAAAAAQO9CXgcAAAAA6F3I6wAAAAAAvQt5HQAAAACgdyGvAwAAAAD0LuR1AAAAAIDehbwOAAAAANC7kNcBAAAAAHoX8joAAAAAQO9CXgcAAAAA6F3I6wAAAAAAvQt5HQAAAACgdyGvAwAAAAD0LuR1AAAAAIDehbwOAAAAANC7kNcBAAAAAHoX8joAAAAAQO9CXgcAAAAA6F3I6wAAAAAAvQt5HQAAAACgdyGvAwAAAAD0LuR1AAAAAIDehbwOAAAAANC7kNcBAAAAAHoX8joAAAAAQO9CXgcAAAAA6F3I6wAAAAAAvQt5HQAAAACgdyGvAwAAAAD0LuR1AAAAAIDehbwOAAAAANC7kNcBAAAAAHoX8joAAAAAQO9CXgcAAAAA6F3I6wAAAAAAvQt5HQAAAACgdyGvAwAAAAD0LuR1AAAAAIDehbwOAAAAANC7kNcBAAAAAHoX8joAAAAAQO9CXgcAAAAA6F1stwcAANBlsizLskzTtEaj0Wg0NE0fc7EoipIkkSsZhtFoNKqqKp9SVZWiqM53j3+q5w1GURRJkiiKYhiG/IjP+zyqqpJxarVaMozPfAZFUURRVBRFq9WS8X/ekQMAwJcEeR0ATrtUKrW5uelwOLxer8PhsFqtx1y89njt0fwjn8/n9/v7+/tdLler1SqXy6lUqlQqNZtNrVZrsVj6+voikYhWq9VqtS8+ElEU8/l8KpVKJBKKogwMDPT19YVCoc/1JCTuz87OxuPxc+fODQ8PWywWvV5//EPK5fL9+/fr9fq5c+f6+vosFgvL4g0CAKAn4OUYAE4vWZYlSdrd3b19+/bw8PDExIRWq31eXifz6JvxzXffe/fChQtTk1MOp0On0x0eHu7v729vb+fzeY7jtFqt2WyOxWKCIPj9fo/H8+IT5KIoHh4eLi4u3r17V5blCxcuXLx40ePxfK68rqqqJEmLi4sfffQRwzAer0ev139mXq/Vanfv3s1kMmaL2Wa3GY1G5HUAgB6Bl2MAOL04jsvn8/Pz8++///4rr7wSCoX8fv/zLhZFURCEw8PDtdW1ly6/NDIyQlHU+vr6O++8E4/HjUajxWKx2Wz1en17e3t5eZll2R/96Eevv/660Wg8Pi538Dy/vr4+Ozu7sbEhiiLHcQaD4dy5c2az+cX/UuRzRSaTicfj+UK+LbQVRTn+elVVeZ4/ODg4ODioVCpiWyQLewAAoBcgrwPA6SJJUr1e5ziu1WplMpnd3d3Z2dmlpaWhoaFWq0UWjj9Ts9nM5/OVSqXdblutVr/fv7W1tby8/PDhw3Q6PTU15fF4AoEAWRWzubm5ubnZ398/Pj4eCoVeJK/LstxoNDY3Nzc2Nshq+Hg8Ho1Ga7Wa1Wr9vEtiarVaJpNp1BuSJB2f16lP17uXSqV8Pt9qtmRZRl4HAOgdyOsAcLo0Go3V1dWNjY2tra3d3d3d3d1kMimK4mc+sFgsrqysqKo6PT0dCoUoilpdW33w4IHBYLhy5cqbb74Zi8X0er0gCPV6/be//W0qlUqlUrOzsy+//LLb7T7+yVVVbbVapVJpZ2enUql857vfkUTpgw8+SCaT6XTaarW6XK6/YvcqAAB8AyCvA8DpIstys9msVqulUqlWq5EJ9RdZYp7L5ebn52mavnTpUjAYVBRlb3cvkUgMDAycP39+cnIyGo1SFEWmxjc2Nvx+f7PZ3NraOnPmzGeOSlGUYrF4cHBQq9WMRuP58+dlWb5//z7HcTs7Ow6Hw+FwMAxz9CGSJHEcV6vVyuVys9nkeZ5lWYPBYLPZzGazIAhP/xRBEDiOq1ar5XKZ53me5w0Gg9FotNvtHMc9896CIAjkg0S5XBYEQZZlg8FgsVjIxlyj0UhGValU8vm8Xq83GAzUpxtYJUlyOp02m81kMmE1PADAXw0voABwuuh0Oo/XExuJORyOc+fOtdvtTz755He/+93xHQxVVc1ms7OzsxcvXrx06ZLf75dluVAoFIvFK1euxGIxk8lEriTR3+FwkPheKpWeGZ2fIMvywcFBPB5nWTYajQ4PDSuKMjw8LAjC2tqax+OJxWJP5HVBEPb399fX1xcXF3d3d/P5vNls9vl8ly5dunDhAsdxT/+Uer2+s7Ozurq6sLCQTqfz+bzP5wuFQjMzMwaDodVqPf2QWr2WTqfnHszNz8/n8/lWqxUIBIaGhqampkZGRvr6+oxGI0VRu7u7d+7ccbvdgUCApmme5xcXF+v1+sWLF8fGxqLRKPI6AMBfDS+gAHC66HQ6n89n0Bv6Qn2yLFMUlc/n//jHPx6T18m0dLFYrFQqRqNxeHjY4XBQFDUxMaEoyoULF6LRKImt1KfbN8luUbPZbDAYnsjZzyTL8u7u7uPHjy0WS39/v9frVRRlbGwskUisra1FIpEbN26QXuzk4kq1ur+3d+fOnUQi0Wg0aJp2Op1arVZRla2trUKhsLe398RfoVqtrj1+fOdPf8pkMo1Gg2VZj8ejN+h5nl9ZWREEIZ/PH/0l8DzfaDSWFpfu379fqVQkSTKZTDqdTlXVVCpVr9czmcy1a9f6+vpMJlOpVFpfX3c4HLlcrtlskl+XwWCQJAnLeAAAviDkdQA4XXQ6nd/n93q8nV2Yc3Nzer3+mFTdbDYPDw8rlQrDMA6HIxwOMwyjKMobb7xx48YNt9tts9nIOhDq0/Ys5XJ5Z2dnYmLC5/N1pt6fh3Rg3N7eXl1dnZmZOXPmDOkpOTExQSb1R0ZGBEHQ6XQkT4uimDw4mH3w4Fe/+lW5XL558+b09HQ4HBYEoVgqzj2Y++1vf5vNZo/+CK7Z3Nre/tPHH//iF79wu903btwgzd1L5VI2m737yd3FxcVMJjMwMNB5SKPR2N/fv3Xr1s//v59fe/na9evXvV6v0Wg8PDzc2Nj48MMPl5eXHQ6HwWDQ6/XNZjOdThcKhcPDw2Qy2Wg0xsbGhoeHfT6fzWbD5DoAwBeB11AAOF1omn6i14pOpzt+DrhSqTx+/LjZbE5MTHROL6Jp2ufzuVwunU7HsmznoFNy2tHa2lqtVvN6vVNTU5+52bRWq6XT6VQqVa1WfT5fLBazWCwURcViscePH7darWw2u7u7Gw6HvV4vRVFkkczi4iLLsqOjo5cuXRofH/d4PG2xXa/VxbZYr9fJcp3Oj6hWKvPz81vb2w6HY2Ji4sqVK319fR6Pp1arFQoFrsE1m81ms3l0VOl0+k9/+lM+n48Nx86fP3/p0iW73a7X6/1+v8lkymazPM8/fvzYZrN5PB5ZlkVRLBQK7XZ7aGjo6tWrw8PDAwMD/f39Vqv1Re4wAADA8yCvAwB8hlKptLS0pKrqxYsX+/v7yRdpmiZz6p2sTw4W3draeueddxYWFlqtVigUeumll44/MJWiqHK5vLu7m81myerw4eFh0nB9eHiYNKLJ5/Pr6+sGg4HkdZ7nl5eXl5eWhoeHX3rppVdeeSUSiZAPDKqqGo1Gp9PJcdzRvF4ul2fv30+lUmfPnn3llVdeeeUVi8VC07SqqoIg6A16s9mcy+WOLrVPJpMffvih0+l8/fXXb968efnyZZqmaZomy3U4jltdXV1fX7fb7dPT0+QhuVwun8//6Ec/+od/+Aer1WoymchqfiyJAQD4IpDXAQCeS1EUURTz+fza2trAwMDExEQgEOh8txND2+12tVrd3d1dXl7e2NjY2dmJRqNXr16dmZl5kdbpqVRqcXGx0WgYDIZCobCxsUEeIklSsVg0mUz1ev3hw4der3diYkKWZUEQisVitVr1eD390X6LxXJ0wYnX6x0bG3M6neSPqqqSlji5XE4UxUh/hPSD78x563S6UDA0NDRksVhIXicPqdVq+/v79XrdbrfPz8+Xy+XOjyCrfVKp1OHhYV9fX6cbps/n83g8kUjE6XSS2w5f8PcPAAAU8joAwDFkWW61Wvl8PpFIhEKh0dFRj8dz9AKyBqbRaBweHs7Ozv7617+uVCqkI/vf//3fO53Ozj7U51FV9fDwcHFxkeM4o9GYzWaXl5c7381ms528fv78eUVRZFkW2kKlUuE4zuP2PH0Yk8PhYFmW7Iglzy/JUqvVKpfLLMv2hfq8Pu/RBSoMw3i93kgkYjabi8Ui9emNgnq9nk6nG42GzWarVqvr6+udh5APDKlUam9vL5fLdRpB+v1+j8cTCoU+c8k+AAC8OOR1AIDnajQaW1tbtVqNrMY2m81PTJY3m814PL66ujo3N1cul8kmzuHhYTLD3dmE+jyiKIqiuLe3t7i4qNFojEZjMpnkeb5zQT6fZ1m2Xq+XSqVkMlkqlVgtqyiKqqo0TTMMw2iYJ1abaDQahvkfX1QV9S8PYRlG8+Rqcg2j0TD/owM9uZ6iKL1eb7PZHA6H3W7vfFeWZavV6vV6Se/5zgcG0v1dp9O9yO8WAABeEPI6AMBzNRqNeDxeqVRGRkYGBgY6xwNRFKWqarvdLhQKCwsLn3zyyfz8vMfj+d73vnflypWLFy8aDIbjG7oTpM1iMplMJBLj4+OBQEBRlFKp1LlAVdVgMMjz/NbWViqVymQyLpeLUimNRtPZ4UqC9dGHyIp89Ivkv8lSckVWOo1x/nKB8j+ep/MfDMOYTCaXy+X3+4/umiULZmRZJk0nSZNHiqJ0Ot2LrP8BAIDPBXkdAOC5qtXq0tISz/Nnz56NRqNHl5GIori1tbW8vHz37t1yufzmm2+Oj49PTEwEg8HPbDjTkc/nNzY2isWi1Wp99dVXv//977Mse/SnyLIsSdJ7772XTCbz+fzCwsL09LTVarVYLDqdrlQq5XK5zhZYol6vp1KpRqNB/kjTtE6nM5lMVquV5/lsNlsqlY5GdtJ9MpvJtvg/n5ek0Wi0Wq3ZbLbb7T6fr7+/nzRn7DxEEIRyuVyr1RqNhsVi6Uzn0zT9IifFAgDA54K8DgDwDGSnKencYrVah4aGQqHQ0Snzdru9sbExOzt7cHDgdDqvXr164cIFh8Oh1WpJP3WKokhrlGMibC6XW1hYaDQawWDw8uXL3/ve98jE+dFhKIqSyWQ++uijarU6Pz8fiUQ8Ho/X63U6nblcbmtri2wVJZPckiyl0+mVlZVOcxiybMZsNgeDwXQ6TfpCjoyM2O12nU5HFujv7+/H4/F6rU4eotFoWJa12+39/f0Oh0MURZvNFo1GtTodwzCyJJVKpVqtJssyab7eGTDyOgDAlwF5HQDgGUg3cdLi0OfzhUIhl8vVCaaKorRarUePHj148GB4eHhyctLtdquq2mg0jqZtlmVZltXr9c9bIpJOp+/du6fRaC5fvhwIBJ7uU04SMEnzmUxmdnZ2Zmbm/PnzZ86cKRaLiUSCdI1ktWwwEJQkqVavzT+af+/d9xKJxNHncTgcly5devDgwcLCAsuykf7I0OBQIBBoNBq5XO7u3bsfffRRKpVyuVydhwQCgRs3biQSiQ8++ECv1wcCAY/HY7ZYatXq5ubmu+++y3HchQsXIpHIyfzGAQDgOZDXAQCeQRCEg4ODXC5ntVr9fv8TnV7a7XatVtvb20skEl6vt1KprK6u7u3tPfEkLpfL7XZ3zjk6ShRFQRDS6fTjx48vXrx44cIFn8/39Mw0maH3+XwXLly4devWyspKKpVqNpuDg4ONRiObzebz+QdzD8rlcjD457y+sb7RaDQ6PRYJu91+4cKFRqOxt7d3kDz405/+tLe7FwwGa/VaqVTa2d3hOE6W5aMP8fl8M1dmeIGPx+PxeNxsNrs9HqvF0uC4/b297e1tk8lksVisVuuLrNQHAIC/GvI6AMAzNJvNzc3NTCYzPDw8Ojp6tGcimUfP5/Mcx5VKpTt37iwtLRkMhqfbjZ89e3Zqauq11157Oq83m818Pn94eJjJZGw22/HHoHo8nsnJyaWlpXq9fnh4eHh4GAgErFZrs9mcn5+/9cdb77/3PpnCVxTlzJkzr7zySqPRqFarnWewWq1nz54ltwXW1tZ++ctfUiql1WoVRdHpdFNTUzMzM/l8/okfOj093W63BV5IJBL3799nGIbcLrBYLGRI58+fj0Qi2GAKAPClQl4HgNNucHDwzTffnJqaCgaD5GBRiqIYhjEajYFAwO/3Dw4OHs3rZEW41Wp96aWXjl+rHYlEvF7vM7s6kj2dIyMjP/jBD2ZmZgYHB482THyCw+EYHh6+du1au90eGxszm80ul8vj8czMzJhMJrvdns/n2+02wzA6ne78+fMvvfSSJElDQ0Nnzpyx2WxarVan07lcrpGREUEQ7Ha7xWJpNBrtdlun05FPC8FgkKIoSZIGBwfJFlKtVqs36MfHxxVZsdvtRqNRaAuqotpsNp/PNzQ0NDExEQqFLBYLRVGhUOjatWsOhyMQCHSOagIAgBNBP9EIDADgtKnVauVy2Wg0ms1mnU5HZos5jtvZ2REEwePxOBwOEmE7D5FlmZxpynHcMc+s1+sNBoPFYnk6spN+iPV6vVqt2mw2m83GMMzT69c7F0uSVKvV6vU6aQ6j1Wppmm61Ws1mkyP/x3E6nc5sNlssFhLHBUGw2Wzk9FOyZKXdbvM8zzW5ZrPJcVyTa5rNZrPZTJowNhoNVVVJNGdZlnwUEQThzz+F45rNpiiJVovVbDaTv5rJZCJj5jiuXq+TlG80Gp84wgkAAL4I5HUAgGcQRbFarcqybLFY9Hr9EycQ9RRVVclqeLJYhSx5P+56SlVVtS20BUHQ6/XkIZ/5I1RVFQRBkiWD3oAFMAAAXyXkdQCAZyAJlfp0x2e3h/MZOq/kLz5U8hf8XH+7zi/krxghAAD81ZDXAQAAAAB6F5pwAQAAAAD0LuR1AAAAAIDehbwOAAAAANC7kNcBAAAAAHoX8joAAAAAQO9CXgcAAAAA6F3I6wAAAAAAvQt5HQAAAACgdyGvAwAAAAD0LuR1AAAAAIDehbwOAAAAANC7kNcBAAAAAHoX8joAAAAAQO9CXgcAAAAA6F3I6wAAAAAAvYs9wedSFEWW5RN8QgAAAACAL4lGo2EYptuj+Gwnmdfz+XwymVQU5QSfEwAAAADgy+Dz+SKRiEbT6+tNTjKvVyqVRCLBsqxWqz3BpwX4MkiSJAiCTqdDuUIvkySp3W6zLKvT6bo9FoDPgHKFrxFZlgVBoGm6r6/vdOV1IhAIRCKRE39agJOVTqd3d3dRrtDjCoXC7u6uy+UaGBjo/XcUOOVQrvA1Qsq126N4USef1x0OR39//4k/LcDJ4nl+b2/PbrejXKGXqap6cHBgtVojkcjXYpElnGadcg2Hwyx78gED4GQlk8luD+FF4eMvAAAAAEDvQl4HAAAAAOhdyOsAAAAAAL0LeR0AAAAAoHchrwMAAAAA9C7kdQAAAACA3oW8DgAAAADQu5DXAQAAAAB6F/I6AAAAAEDvQl4HAAAAAOhdyOsAAAAAAL0LeR0AAAAAoHchrwMAAAAA9C7kdQAAAACA3sV2ewDwbKqqCoLA83yr1RJFkaIolmX1er3RaDQYDBoNPmhBN7VarUajIYqiJEnPvICmaZqmGYZhGMZgMBiNRoZhULdwPJVS20K72WzyPC8IQrvdFgSBpmmNRqPT6fR6vdVqNZlMLMuilqDXqKqqqmqj0WhwDb7F8wIviZKqqgzDaLVanU5nNputVqtWq2VZRC/43FA0PUpV1VKplMlkDg8PS6USRVFWq9Xv94dCob6+Pp1O1+0BwqlWKpXW19crlQrHcaqqPn2BRqPRarUGg8FsNgeDwUgkYjQaUbdwDJVSVVWt1Wq7u7vpdDqXy+Xz+VwuR6YqXC5XIBCYmJiIRCI2mw21BL1GURRJkvb29xKJxOHhYTaTrdfrsiwbjUa73e7xeIaGhiYmJhwOh8Vi6fZg4esHeb1HybK8t7e3sLCQSCSy2SxFUXa7PRKJTE9Pe71evFdBdxWLxcXFxYODg0Kh8Ly83rkj5PP5QqFQLBYbGRmxWCxGo/GrHzD0MlVVRVGsVCvJg2RiK7GxvpHJZIrFYrFYLJVKLMtqtVq73e71ere2tmKxWCwW6+vr83g8eCWEXiDLsiiKOzs78Xh8c3MzsZXIZrKFQoHjOFmWDQaD1Wp1Op2RSCQej4+NjY2Pj9vtdqvV2u2Bw9cJ8nqPkiTp8ePHH3zwwebmZiaToSjKZrP19fWpqnrx4kV8OofuKhQLCwsLq2ur+/v7qvKMvE5RFFnGQCba9Xr9T37yk7fffjsajSKvwxNkWW42m9tb2++///6DBw/i8Xi9Xpc+1VlbRe7YDAwMfOc737l+/frMzAzyOvSCdrvdaDQ+/vjjn//854VCoVgqSqIkSqIiKxRFdVYG6vV6g8Hw2uuv/+3/+l9j4+PI6/C5IK/3ona7TW4Kr66uZrPZWq1GURTHca1Wa3d3N5/Pm0wmk8lE03S3RwqnlCiK9Ua9Uq6UiiVFUTQajd/vd7lcFEWR6XZRFJutJtfg6vW6oig0Tc/Nzdnt9tdeey0YDHZ7+NBDZEUul8v379+/d+/e3bt3Nzc3s9msRqMxm81ut9tms5HJy3w+XyqVVFVttVosy6qqarVah4eH3W43wzDd/kvAqZZKpR49enTv3r21tbVWqyVJUiQS8fv9ZLMZz/OlUunw8LBQKMiy/GB2ltFofiiKfp9Pp9NptdpuDx++HpDXe1GLb5XKpf2D/Z2dHUVRyBcFQcjn8+l0Op1OO51Oo9GIvA49gmVZsjST/JFsusrmsofJw1arJQiCqqpra2v1en1wcPDq1avdHS30DlVVZVnO5rLvvPPOf/3Xf+Xz+WazqSiKy+UKhUIDAwODg4Nk8vLhw4dkNXC5XL57964oij6fT6fT2e125HXoru3t7V//+tcLCwuVSoWiKJPJdP78+ZmZGbfbzbJsuVxeXV397//+73Q6Lcvy48ePt7e3fT7f5cuX7XY78jq8IOT1XpTNZtfW1gr5ArkXrNFoaJpWVVVRFLLPz+Fw+Hy+bg8TgKIoiqZprVY7OTn5/e9/v/NFQRDq9frKysp///d/HxwcFIvFer2eSqVqtZokSWSdTBfHDD2CrPpdeLSwtbWVy+VarZbD4RgYGDh79uzU1BS5aSPLMs/zZ86cefz48YMHD3Z2dkRRTKVS9+/fdzqdo6Ojer2+84TkA0Cz2SSdtVRV1Wg0BoPBZDI9sy8HuZ5Mi5B1C2T5TavVaraa5Otmk1mn05HuH51VXqqqSpLUbDY5juu07SJVTZ7n6QqXZVmWZfLfNE3TGprRMJh2+VpTFEWW5WKxuLGxkclkFEXp7++PxWI3bty4evWq2WzWaDTNZjMQCFgslocPHy4sLJDKzOfzqVSKZVmTyXS0Asnb/RPFI0lS54LONRRFkVRwtHo1Gg25H0WWzpOuSnq9/ugTtlotnufJvw6jyWjQG9Bw6WsBeb0XZdKZ5aXlQqHQeW8gbw+iKJJP6uFweHJyErNK0AtIr73Jyckf//jHT3zr448/rtVqoiiWSqVWq6WqarPZlCQJU0pAtNvteDw+Nzd3cHDQaDQoivL5fNeuXXvttddef/31zlYHMlWxurrabDZJKioWi/fv349Go2+88Ubn2VRVlRVFaLeLpVK5VGo2m7Isd/aqkvBEEk/nIYqiCIJA2pKSja0ksjcajXwhT2ZMfF6fzWaTJImkf5ZldTqdJEk8zxcKhWw263a7XS4Xy7LkNZmsVH7iB1EUJUmSIAjkvzWMhmEYWkczNF7Gv8YURSGvbzs7O6ST28DAwI0bN27evHnlypXOZUNDQ+FwmGXZjY0NUgPVajWZTLpcLo/H0263Sddmskmj86GRPJa89bfbberTffwE+cRIUJ++DrMsK0oi1+Qy2YzACzabjdyA0mq1ZNZPVVWO48rlcqPRkGXZ6/M6HA6T0fR0uUKvQV7vOaqqHhwczM3NZbNZnU4XiUTcbrdGo6lWq3t7e8VicWFhYWxsTBRFlmXxDwx62dHJS4vF4na7LRYL5nKgQxCE1dXVe/fuFQoFMtc4ODh448aNiTMTRz/U0TRtNpv7+vquX7/Osuzh4WG73TaZTGaLWWgLoihqtdpUKpVMJldXVxOJBOk0KoqioigkPZtMpv7+/uHh4YmJidHRUVKBsiwnk8l33313c3OToqjBwcHLly8LgpBKpXZ2d/b29hwOh9vtDveF9Xo92QXrdDr7+/vHx8cPDg4ePHhAbhydP39+aGhoa2uL9AYIhUI3b96MxWIOh4P8LSRJEkXx97///e3bt1VVNZlMZ86cGRsbi8ViTqezS797ODGdKExRVLFY3NnZyWaz1Wq108TWbDZHo9Fvf/vbJpOp2WxSFHXhwgWy+T6Xy7333ntLS0sURQUCgampqVgsFo1GyQMVReF5/t13371z5w5FUQ6HY3JycmxsLBqNtlqt7e3ttbW11dVVnU5ntVrHx8cDgcDDhw/j8Xhnft3v95PeXGNjY+vr6w8fPsxkMvl8nsyvm83mvnDfxemLIyMj4XDYYDB08/cIx0Je7y3khmkymVxcXKxUKjqdbmBgIBaLaTSag4ODXC5XLpfX1tb29/dbrZZWq8U8JXQdeaMi041HvyjLMsdxPM+TSUqHw9Hf3+9wOHBWCBAki8Tj8UePHkmSZDAYHA7H4NDg5ZcuDwwMaOi/fKijadpoNPr9/itXrlit1ng8ThYKu11uWZbbYpuiqL29vfv37//+97+fnZ0VBEGWZTJPSbpiS5I0MTHx0ksvqaoaiUT0ej3LsrIsp1KpX/3qV3/4wx8oirpy5YqiKJVKZWlp6fHjx5ubm4ODg0NDQ4ODgzRNf9ITd+0AACAASURBVPTRR9lsNhwOT09P1+v1paWlX/7yl5VKRZKk733ve5VK5YMPPpifn6co6vz582az2Wazmc1m8hLdbrc5jrt169a//Mu/qKrq8Xh+/OMf6/X6UCiEvP611mlepNPpGIYh+yt2dnZ2dnaGhoZcLpfFYiF3dXw+38zMTCwWk2WZfP40m806nS6VSr3zzjv/8R//QVHU2bNneZ43GAyhUIjkdVmWW63WH//4x3/913+lKCocDv/t3/6tTqfz+XzkZvv777//zjvvGI1Gj8fz6quvjo6O/uY3v5mdnSUTJaqq9vX1Xbhw4ebNmzqd7s6dO7/4xS+y2Ww+nycXaDSaoaEh0jbA6XSS+0Jd/p3Cc+CNs7fUarVCoZDJZCqViiAINpttYGBgamqKNMVbWFgg6wpyuVwikYhGo4FAoNtDhtOO3K7d3t6+d+9e5yutVqtUKj18+HBlZaVQKDAMMzEx8dprrw0NDXV3tNA7eJ6v1+s8z8uyTKb6RkZGBgcGjYZnb6Y3GAxDQ0NOp/Ps2bNkUYHP53M6nK1mK11Jf/zxx7/5zW8ODg5Id45gMBgIBBiGqVQqe3t7m5ub6XT63r17ZBtrJBLxer1PPH8mk7l9+3a9Xt/d3SVrG54gSVK9Xl9bW8vlcrlcjqwooCiKtNa22+3kM0Cz2SRxLRQKmUwmiqLK5fLe3h7pb0NRFJmIIccRnPhvFb5K5K3Z4/FMTEwwDHN4eFitVre2tv793/99bm6OFKHf7/f5fG6322q1klsuDMOQxVfPPLzir9BsNvP5/CeffBKPx0VRHBsbq1artVqt0WhUKpWVlZVSqTQ/P5/P5xuNBlmEQ444UFU1n8//4Q9/0Gg0AwMDJpPJYDAgsvcm5PXeUqlUEolEJpNpNBo0TRsMhv7+/nPnztE0TXY1qarabrfz+fz6+rrZbEZeh64jk+vxePz27dudr9Tr9XQ6nUgktre3yQKAWCx2/fr1vr6+7o4WeoSqqjzP12o1MhdOURRZskJmFmnqGYlBq9UGAoGnX/RIs7z19fXFxUWapm0228TExOTk5NDQEMuyuVzu3r17+/v7pVKpVCptbGwkEgmr1fp0Xi8UCmSCXBRFq9Xq8/kikUgoFDKbzWQNgyRJpK/uzs4OmeMkK4mHh4ej0ajf77fb7Y1Gg+M4cq7T9PQ0eeZyuRyPx4vFIk3TpKdNJBIhh/6e+C8Wvko0TbMsGwgELl26JMsyqWfSxu3BgweBQCAcDg8MDESj0XA4HIlE+vr6XC6Xw+HQ6/U6nY6sSv/iBEEgT8Xz/Llz5/x+fy6XSyaTiUSiWq02Gg2yyDYUCvX39weDQYfDsb6+vr29XSqVKpXK4uKix+PJZrPBYJDcKDiRUcHJQl7vLblcbn5+Pp1Ok54bFoslFAoNDw9TFHV4eGi1WrVarSiKuVzu0aNHwWDw3Llz3R4yACWK4sLCQjKZpI70XydprN1uO53OYDAYCoV8Ph+ZbgSgKIrjuFKp1NmCyTCMxWIhu0I/1/MIglAul+12+7lz5xiG8Xq9b7zxxqVLl+x2u0ajId0wbt++XavVVFWt1WqpVGp0dPSZz1MqlcbHxy9evDg4OBiNRm02m1ar3draIsuLyRIvi8Xi9XonJydffvll0iE+Go3a7fbJycl0Or2+vs5x3ObmZiwW66wQKxQK5EYTOakgFov5/X6yl+OL/QqhJwwODv7oxz+yWq2iKO7v7x8eHlIUJYpioVBotVqpVGpxcZEskXI6nVNTU2RhTDQaPcExaDSay5cv37x58+zZs6FQqNFoLCws/PznP+c4jrTk0mq1V69e/elPf2qz2fR6/ePHjxcWFj788MONjQ1VVQVBKBQK1WrVarUir/cmvFj0CtKYKZPJPHr0iOR1h8MRCoX8fj+ZB/L5fMFgMJlMFovFQqGwtLR04cIFtMaDHkFW6Hb+SHqKURRFmugxDFMul7e2tmiaNplMDMswGrwlnHakX0qnxSGJFH/FNnqyUXVsbIzcync4HOfPn49Go6R3hyzLR5+T53my2vDp5yE7UwcHB7/73e+OjY0NDQ1ptdpWq0VOrKMoSlGUdrttsVjOnj178+bN119/3efzORwO0v9xfHw8mUxmMplSqZRKpQ4PDyuVSqvV0ul0uXxuZWUln88zDNPX1zc+Pu7xeI62oYSvNY/HY7VZBV4QBIHcwGl9qtlslkol0sKFHNBL7p+3222r1XqCH9homh4dHf3ud787PDzs9/tFUdTpdB9++OHe3h7HcXq93uFwkEWJpPDcbjdZZLuxsUFRlCiKtVqN47iTWqIDJw55vVeQfHN4ePjw4cNSqcQwTDQanZyc9Hg85MMu+cdWKBTq9XqhUOB5PplMkkUyOJQbuotl2enp6YsXL3a+QlLR3t5ePB4ny3nfe++9lZWV//1//vebjjetFitjQF4/7ViWNRgMncm8Tn+6z5sYfD6f2WweHR3lOI40Z2RZdnt7u16v5/P5g4ODe/fudYKI+qmnn8fhcIyMjFy6dOnKlStOp5OcId1ut5+YEOnr6/vBD35w+fLlcDhsNBrJrladTheNRs+cOTM3NyfLcqPRKBaLqVTK4/G4XK5sNruyslKpVMgL+7lz57DN9JuEYRkDbZiamurr60smk8lkcm9vb39//+Dg4ODgIJVKNRoNsgW/1Wqtrq6m02lRFM1mc39//wkOw+v1Dg4O2mw2skrHZDK53W6Hw8HzvNVqHRwc7By5qqqqzWbzeL36TxvCkFMOSNOYExwSnCDk9V7RbDYLhUIqlcpkMu12m2EYRVE4jltbWyNTQfv7+7Vajez4Jnd4Sf+yQCDgdru7PXw4vcjarfHx8e985zudLwqCQPZd2e32jY2NeDyeSCTS6fT09PT09HS4D43DgDIYDGSNH/kjmeFrNBqdQ52fIElSpVIpV8rlUpm8Krpcrr6+Pp1OZ7PZOI6r1WrFYrFYLJLNdvV6vVqtlkql3d1d0qSoE9mf+fxWq3VgYGBgYCAYDHYmv5++e+lwOM6ePTs0NGS1WjvfZVk2GAwODQ253W6yLrlSqezu7trt9rbYzufyuVxOlmWLxRIOh8fGxux2+xf+/UH3kfOSyP8nLV88Hs/w8HAymTw8IpfPVcoV0q2flOjKygrZwPAie45fJEOTnjMul4v8gyJ3q8j+UXJkmNPpNJvNZEZfURS9wWAymdgjn5aPnucFPQh5vVdUq9V4PJ5OpzsnmZEewzs7O1arlaKoRqNBmhKQZQaqquZyudXVVa1Wi7wOXUTmcgYGBl566aXOF8kb2MHBwcDAwPvvv7+9vd1ut3meT6fT21vbdpsdRXvKkXhBWsiRr5Cd9J3FA0/jeX4zsbm8vLzwaCGfz1MUdfny5R+++UOX06XX6z/55JOPPvpoe3s7lUpJkkTCB4kp5CSmTl5/HpPJRBosHrMgh7QBIL0+jl6m0WjcbnckEvH5fDabrVqt1uv1RCKh1+vJXIyiKGQaPhQKxWIxdIb5ZiBT5mS7J6kuo8nkDwRcbvfExES73W62mvV6fX9/f3Vl9ZNPPrl9+zYp71Qq9ejRoxephBef8CbnIh39hNk5BYkctHR0YTpN0xqckfS1grzeK4rF4vLycjKZJGGd7Itqt9vkGBHq07WePM93Jp/IP/hQKPTMvVMAXw1yCq/RaHQ4HE9/V5blhYUFEpVIc+Ln7faD00an05HI7nK5Go1Gs9nc29vb3d0lm0efaAVNzmVcWVn5+OOP11bXyuUyTdN+v5+m6Wwue5g8vHv37v3790ulkiiKg0ODgUDAbDLbbDa3201OUJIk6fh2HCzLWiyWY/rZaTQa0mlbr9c/cfZFp/HL4ODg4OBgPB6vVqvr6+vkNmk2m1VVlSxXCAaDNpsNW/q+GTiOS6VSOzs7iUSCTKVdunTp/OSkxWx22O3Up3sevF6v2+VutVrxeJysXy+Xy/v7+/V6/eizkRMJOtGfoiie56vV6gu2kSEvxcdU79FvIad/7SCv9wpycOnBwUHnji351P7EOxZZD0P+eHh4ODc3d/ny5e6MGOCzkDNu7HY7KWNVVavVajabbbVa3R4adB/DMKRCQqHQwcFBvV4nRxRlMhmPx6PT6Z549as3GgsLC3f+dKdQKAiCwDAMz/MOu2Npaemdd955+PDh1taWxWLp7+//0Vs/un7jejAQtNvtWq32t7/97erqaqPRIInqeTobXp93AVn6dcyOWKPRODo6ure3l06ni8Xi2tpas9nkOC6TyZCTa6anpwOBAI6m/sao1WobGxsffvjhO++8Q5p+/uxnP/P5fJpgkCz502g0er0+GAh63J58Pj87O8vzPMdxjUYjn8+3Wi36yCS3JEnNZpPn+c67PMdx+XyePDOccsjr3Uc632Uyma2tLXKTlzS/8wf8LpfriYsr5Qrp7UrOVNrd3c1kMuVy2WQyodsAdAXZvcfzfK1e63xRkRVJktLp9Obm5u7uLrkpRJrDOBwO7JAG6tO1JefOnUulUmQeURCE7e3t3/zmN5lMZmpqyuVyWa3WZrPZaDQOU6nVlZX1x+ukRx5ZCE5OUK/VavF4PJfLSZLk8XjGxsYmzkyQNeJaVttut2maFgThM/fS0S+wPOD4a0h7mZGRkXv37qXT6XK5TFEUx3G5XI6iqFAoNDU15fF4ENa/MbRarc1m02g05XKZTJYvLy/fvn17ZmZGr9eTY3RpmiadQKvVarlcJrMVZrPZ6/WSnp4Mw5A9oKT5Yy6XEwTBZDbTNF0oFDY3N8lpvnDKIa93nyiKlUolnU7v7OyQ88ai0ejLL7986fKlsbGxJy5OJBKz92fv37+fy+Xq9Xq73U6n0/l83u/3I69DtyiK0mw1j76piKLYarbW1tZu3769urpKtjHRNG232/1+P46JAUKv11+4cEEQhNXV1UQiQVHU9vb2v/3bv6XTaY1GE4vFwuFwLpc7PDy8f//+gwcP4vE4SUUOh2NycnJ4eFiv15P1wbVajWGYUCg0MTExPDQcDARpmuZ5vtFokEZ1J3U2zTEMBsPg4OBBMmk2m0VRFEWxXq+Tu6aqqoZCIdLy68seBnxljEZjIBBwOp2dVePr6+sMwzgcjkgkQlaNUxTF83w2myWbUKvVqqqqnTNxOx1vycm4+/v7mUyG9DnVaDTZXO7x48fFYrGrf0voCcjr3Ver1dbX1/f39zur1sLh8MzMzMjISDgcfuJiDa2RRCmTyczNzZGdqclkcm1tjSyd7Mbw4bQjZ2381wf/lU6lO1+UFVkSpXw+v7e3l8lkFEWxWq0ul2tkZGRiYgLN7IBgGMbj8YyOjl6/fl0UxXg8Ttq8LC4u8jzvcrlI45d6vX54eJhKparVqlarNZvNsVjs1VdfnZycJIvg/X4/WWawt7f34MEDt9tNmqYXi8Wtra27d+92DgdQFKWzp//L+OtYrFafzxeNRpPJZKlUIq/qBoPBYDAEg8FIJIKdpt8kBoPB7/ePjY1dvXp1Y2Njd3e3UCisra394he/mJubczgcRqNRUZRGo0G+Xq/XVVVlGCY2Env126+Gw2GtVtvX1zcwMJBOp1utVjKZ/OMf/8hxHDm3aHNzc2NjgxzABKcc8nr3VavVx48f7+3tkY5jNE2Hw+GLFy96vd6nY41Wq9XpdMvLyyzLiqKoKMrBwcHKyko0Gh0YGOjK+OGUI3n91q1bt27deuJbpJ7JsmCPxzMwMDA2NjY6Oop7QUCQmcihoaFr164JglCv13d3d9vt9sbGxuPHj5+4mKZpcgZqIBCYmJi4fv368PAwaeYYjUbJ1ohkMtlqtaxWa6FQUFU1nU4vLy8fHByIoqjRaEjbona7/SXldY1GYzaZvB7PwMDAzs4OORaHoiij0ejxeAKBQCgUwmKYbxLySWxsbOzGjRvkxEOy7iWRSDAMY7fbDQYD2UVar9cVRSHL2fV6/fj4+I0bN7web7vd7u/vHxkZIfsc0ul0qVRaWFjQ6XQsy5K2WuQQAHRGP+WQ17tMVdVyuby0tLS1tdVut8mRxeRM02ee3G4ymQKBgN/vdzgcJCft7e09evRoZmaG9AvDmwH0AlKKRqPRarUGAoFwOHz27Nlz585duHBBr9ejOQYcZTabz58/bzQag8Hg4uLi8vIy2Z/zRDdok8kUi8UmJiZIF3+/308WBw8NDb355pvkDN1Go1GtVh8+fLi9vU192qLRarUeHh7mcrl8Ps9xXLFY/FJ3PJvN5pGRkd293b29PdJKMhAIXLx4kYR1vER/80Qikddee81ut3s8nng8vrW11Wq1RFEkB3iRg8AURbHb7cFgcHx8/MyZMzdu3vB4POS8sOnpaZ7nm81mu92uVqtk1ynpRjo9PX327Nl79+4tLS0981BeOD2Q17tJpVSVUsk/TpZlyWo2r9cbjUaft2DAYDDo9fr+/v7x8XFy1qnBYGg2m+RQQLwTwFfDaDT6fL5wJEw9pz0wmVa3Wq1ut7uTsaampgwGwxON8AAMBsPw8LDP5+vv7ydbSBOJBDk5rrPzgWEYp9M5MzNz9erVa9eu9ff36/V6smg4HA5bLJZSqZTL5bLZbLlc5jiu2WwyDENu6dA0HQgE9vf39/f3vV5v5xMj2fAaCAQGBwcpigqFQg6H44l+jqRPvMfjIasTdTqd1+s9/hh5g8EQDAUDgUBnX3UgELh8+TIm17+pfD6fx+u1WK0ul4ucWFSpVrgGR/q5kRdDjUYTCoVGRkauXbt28+ZNv9/vsDsoimIYZmJigqIosm4wk8m0Wi1VVY1Go9lsvnr16g9+8AOGYVqtVqvVcrvdbrfbZDKRVutWq9Xn8w0MDAiCwLKszWY7OiqdTkfqlnQ+JccAd75LDlE6Wvw2m+2JJqrQU5DXu4mmaIqiRkZG/umf/qlSqYiiqNPpDAbDyMjIcY+i6UuXLv3zP/8zz/OSJJEbxBMTE8c0XgU4WaMjo//3H/5vtVrtHPP+BFKKWq3WYDDYbDaHw+FyuQwGw/FBB04zssL76tWr0Wi0UqmQfaLVWpVlWK1Wa7FY7Ha7z+fz+Xx+v1+r1XZe7oxGo0aj+e53vxuLxYqlUq1alRWFZRhy3GMwGKRpmuM40kTPYrHYbLbBwUFyzlc0Gv3Zz3724x//mKIol8sVDoc9Hs/RE2dIBxuv13vt2rVms6nRaPr6+o4/7YtsHGw1W7Ly5/sDPp9vamrK5/N9ab886Cqa1lBUXyhkNBgGBwdfe/21Wq3WqDfINDl5GSStsZxOp9/vDwQCnT335B18ZGTkpz/96be+9a1SucS3eFEULRaLw+GIRqPhcPjv/u7vrl+/LsuyXq/v6+vz+/1ms1mr1V6+fDkcDn/nO98hm1MnJyePZoBQKPT222+/8sorzWaTnI/R2RFHbn4ODQ394z/+4w9/+EOKolwuVzQa9Xg8uPnZs/De2WXkg6/f7/9cjyJHcnxJQwL4TIFAIBAIdHsU8I2i1WodDofD4YjFYuR0UtL/jmVZskjdbDY/c1ZCq9VqtdozZ86Mj4/XG40mx8myzLKs1Wol6w2OOUHG7Xa/+uqrx4yKZVnSOPL4wZOzwEhLymQyuRnfTKfTYlskQS0cDsdiMWyz/qaiKYqiaafT6XQ6h4aGZEVuck3yEZFMw5lMJqvV2mnv+D8eS9N6vZ7EAFEUuSYnCILYFs1ms91uJx8dn/lJT6/XW63WY5KAw+F43vEs5Hgvr9fr9Xq/0N8cvkLI6wAA0FtILrfZbAajQUNryJbl428hklUHZnIShaqS6fNjwvrJEgRhdnZ2dnaW9LFJJpO5XI7jOJ/PNz4+PjIy4nK5sM36NKBpmtEwRqNRp9NZrVZVVcmxuCzLfuY9cIZhzCaz0WBUFOUrK134ukBeBwCA3kL2ZZJOGp/rUWSu/csb2PNIknRwcDA/P7+5uZlKpVqtlkajIRtPb968OT4+bjKZEL9Oib+6Dsky9y9jSPANgLwOAADwRZGTqhuNRrPZVBTFZrMNDAzMzMy88cYb0WgUYR0AvgjkdQAAgC+EZdnBwcErV64Eg8FqtarT6VwuVygUmp6eHh4etlqt3R4gAHy9Ia8DAAB8IXq9/vLly8PDw+RYHKvVajab9Xq9yWQi22S7PUAA+HpDXgcAAPhCNBqN0+k0m82iKFIUZTQaP3ODLADAi0NeBwAA+EJIg7yjWwyR1AHgBCGvAwAAnABkdAD4kmBRHQAAAABA70JeBwAAAADoXcjrAAAAAAC9C3kdAAAAAKB3Ia8DAAAAAPQu5HUAAAAAgN518v0cG41GLpc78acFOFn1el1VVY7jUK7Qy6rVqqIozWYzl8sxDNPt4QAcp1arkXLN5/MoV+hx1WpVluVuj+JFnXxez2Qy1Wr1xJ8W4GTxPK+qKsoVepwgCO12u1AoNJtNtPeGHodyha+Rdrvdbre7PYoXdfJ5XavVmkymE39agJNFPlWzLItyhV6mqmqr1WJZ1mg0ajRYwQi9DuUKXyPNZrPbQ3hRJ5/XA4HAyMjIiT8twMna3d2t1WrBYBDlCr0slUo9fvzY6/WOj49jgQH0uFQq1Ww2PR7PxMQEyhV6HCnXbo/iRZ18Xtfr9Var9cSfFuBk6fV6mqZ1Oh3KFXqZwWCgaVqr1VqtVgQg6HGkXHU6ncViYdmTDxgAJ+jrdRfoazNQAAAAAIBTCHkdAAAAAKB3Ia8DAAAAAPQu5HUAAAAAgN6FvA4AAAAA0LuQ1wEAAAAAehfyOgAAAABA70JeBwAAAADoXcjrAAAAAAC9C3kdAAAAAKB3Ia8DAAAAAPQu5HUAAAAAgN7FdnsA8GyqqvKfEkVRo9HodDqj0ajX67VaLU3T3R4gwF+gXOHrolOo7XZbo9GwLGsymUihajSYwILegnKFDuT1HqWqar1eLxQKhUKB4zitVmuz2Xw+n9PpZBiGYZhuDxDgL54uV6vV6vf7Ua7QaziOI4Vaq9VYljWbzX6/3+VyWSwWBCDoNaRci8VitVpFuZ5yyOu9RVVVVVUTicTm5ub29vbBwQHHce12m6Zpg8Fgs9kGBwfPnDnT398fDAbxzxW668/lupXY3Nzc3npGuQ4MDJw9ezYSiYRCIZQrdAsp1P39/c3Nza2trd3dXY7jeJ6naVqn09lstnA4fPbs2YGBgWAwqNPpuj1eONWOluv29vbOzs7T5XrmzJmBgYFQKIRyPT2Q13uLqqqyLC8tLf36P3/9aP7R5uYmmZtUFEVVVYqiLl269NZbb928edPv9yMAQXd1yvU///M/5+fnN+NPluvFixdRrtB1qqoqirK+sf6rX/1qbm5ueWmZYRiNRiPLMinUsbGxt95669VXX3W5XAhA0F2kXOPx+P/71f+bm5tbWlx6olxHR0ffeuutb3/72yjXUwV5vbek0+nt7e3Z2dmVlZVgMDg5NdXX1+dwOGRJyufz6+vrgiDcunWLZdlQKOT1em02W7eHDKfXn8v1/uzy0nIwEJw8P9kXDnfKdWNjg+f527dvd8rVbrd3e8hwGhUKBVKoD+ce2m32n/zkJ33hsNfjkWW5Uqmsr69Xq9UHDx4wDOPz+aLRqMPhwKYL6JZCobCzs3P//v25uTmb1faTn/ykr6/P6/WSct3Y2KhUKnNzcwzDeL3egYEBu92O2ZDTAHm9txweHn7yySfz8/PbW9uXLl566623pqamwpGILEkbGxu/+93vbt26defOHZvNdvHiRbKovdtDhtMrlUrdvXt3fn4+kUhcunTpb95668Kn5RqPx99//31SrhaLhZQr8jp0RS6Xe/Dgwdzc3Nra2ltvvfX2229PTU3FYjFJlg+Tyffff/8Pf/jDnTt3FEWZmpqyWCw2mw2bLqBb8vn8n8t1de1v/uZv3n777akLF0ZiMVmWk8nk7373u48++uiTTz5RFGVyctJqtSIGnBLI670lnU7fvXuX5/nx8fGpqanzk5Nut5vRaDRabTAYfOWVV+r1+vLycqlUevTokcVi6e/v7/aQ4fRKp9P37t3jeX5iYmJycnLy/PlOuQYCgW9961uNRmNlZaVcLpNyjUaj3R4ynEaFQuHhw4fVanVkZGRycnJ6etrr9Wo0Gi1Nu93ul19+udVqbWxskFdXl8sVjUaR16FbCoXC3NxcpVIh5Xrx4kWP16vRaGiadrvdV69ebbVa8Xi8VqutrKx4PJ7+/n6U62mAvN4ryJK1bDa7uLgYCATGxsbGxsaGh4Y6F7jdbpvNtru763K5yPvK6OhoFwcMp9nRcvX5fGNjY+Pj48PDw50LSLnu7e25XC6S2kdGRro4YDidyNa9QqGwurpKUVQsFhsbGzv6ymmz2c6dO1csFn0+X6lU2tjYiMViiqJ0b8hwepFyLRaLq6urqqo+r1xLpZLP5ysUCqRcZVnu4pjhK4M1T71CFEWO46rVarlctlgsIyMjDofj6AUajUar1TqdzqGhIb1ev7+/Xy6XuzVaOOWOlqvZbH5euTocjsHBQVKulUqlW6OFU0uSJI7jarVauVzW6/UjIyNut/voBTRNsyxrt9uj0ajVak2n08ViEXkdukKWZVKulUrlmHK12WzRaNRms2UymWKxSDahwjce8nqvEEWx0Wg0Gg2O40wmUzgctlqtRy+gaZphGKvVGgqFtFptKpWq1WrdGi2ccpIkdcrVbDaHI2GLxXL0gk659vX16XS6VCpVrVa7NVo4tUgAIoWq1+sjkcgTmyhIoZpMpkAgYDKZ8vl8uVxGAIKuIB8vO+UaDoefWa5ms/loueLj5SmBvN4rSAASBIGiKIPBYLPbntmniWzao2m6WCw2m82vfJgAFPXp/DopV71Bb7fZdfpnlKtOpyPlWiqVUK7w1ZMkqdls8jyvqqpOr7PZbXqD/unLyAlfLMtWKpVGo4G8Dl1ByrXVaimKQl48DQbD05eRKXaWZavVKsr19EBe7xWSJJGz3CmK0mq1JqOJZZ+xu4BlWaPRqNFoms1mu93+twil7QAAIABJREFUyocJQFEUJctyi291ytVoMj6zXBmGIeVKzlH6yocJp52iKLzAt9ttVVXJWe5arfbpyzQajdFoZBiGHPyOAARdoSiKIAht8c/lajQZn1muDMMYDAaWZVGupwryeq9QVEWURFmRKYrSMBqWZZ/ZUZUsC6ZpunMkDcBXT1EUSZTI+R2MhtGy2ueVK8uyKFfoFkVRJEmSZKlTqIzmGZ00SKFqNBpFUbC6ALrlzzFAkinyXv+c11Wyih3letogr/cM9c97wymKoin6M0/rQPqBLlL/XKx/KUKaenbFkkpGuUK3/M86fS6apmmaRqFCN5EY8Gm9HhMD8Lp6CiGv9xCaoknoIc3ynvdPsRPrAbqFpmmKpjrlekxNYmYduqvzSfKYQiUvuZiqhK7rxACKoo4pSLyunkLI672C3JAlpx7IsiyK4jP/rSqKIoqiqqoMw+AIYugWmqa1rJZhGLLW5TPL9XnruwC+VGTlAHldPaZQVVWVJElRFLyuQhcdjQGkXJ/ZW52s8pJlGeV6quB/6V6h0Wh0Ol0nr7fb7We+r3S+pdU+e2UbwFeA7KMg5SpJUrvdfub7CsoVuosUKtlEIcuyIAiSJD19maIopIY7aQngq0fT9NFyfd7rqqqq5HWVlOtnrp6Fbwa8g/YK0lCMNG9qNpulUqnVaj19GS/whUJBkiS3220ymb7yYQJQFEXpdLqj5VosFnmef/oyQRCKxaIoiS6Xy2w2f+XDhNOOZVmz2UyaFPE8XywWn/m62m63S+WSIAh2u91isSAAQVd0ypWm6Var9byuze12u1wu8zxvs9lQrqcH8nqvIAGo0/wun88//b6iqmqr1crn85IkeTweBCDoFvLx8kXKNZfPSSLKFbqDZVmLxWIymTQaDXnx5DjuiWtUVRUEoVgotviW0+m0Wq0IQNAVnXIlrUVzudzzyrVQLKBcTxvk9V5BOqo6nc5QKNRoNJaWlvL5POmXRy5ot9vVajWbye7t78mKPDw8/MRJxQBfmaPlynHc4uJiLpc7Wq6iKFar1Uwms7+/L8soV+gOUqgOhyMYDLbb7aWlpVQqdbRQJUmq1Wq5XG7/YJ9v8ZFIxOfzYe0WdAUpV7vdHgwGRVFcXl5+Zrlms9mD/QO+xYfDYZTr6YH/mXsFwzB6vd7tdg8NDbXb7bW1tYODg3K5TM5FEgShVqslk8n9/f3UYYrRMKOjo16vt9ujhlOqU66Dg4PPLNdqtdopV41Gg3L9/9u70982rjTf47VyX0VKIrVYK2XJuxO5Yxu5cXKngb6YngzQr+a/nKXnAukbB07bceJF8qbYki1LsrVYosRFFMWlSNZyX1SipB1nGwiuY+j7edFAwELhaejx4Y+nTp0DT7jvBSWTyeHhYUmSFhYW1tbWyuWye4BXq9Wq1Wqbm5urq6ubrzYtyxoZGclkMgQgeOKgXYeGhmRZXlhYWF1dLZfLtXrtoF23trbW1tZevXpFux41bziSEB4aGBi4cuXKzZs3Hz169M033/j9/txErjvd3W6319fX79+/f+vWLcMwMpnM9PR0f3+/1/XiSHPb9auvvnr48OGtW7f8Af9EbqK7+4d2vX37drPZpF3hrd7e3kuXLnU6nZs3b87MzCSTyYmJif7+/na7vbOzc//+/Tt37lQqlcnJybNnzw4PD/PKKTzktqtpmi9evJidne1KdU3kJgYHB1ut1o/bdWJignY9UsjrYunr67t06dLm5ubTp0+fLz03LXN7Z7sv29dsNldXV2dnZ/P5fE9PTy6XO3HiBBOW8FY2m7106dKrV68WFhaeP3/eMTs72zt9fX3NZnNtbW1mZubH7drT0+N1vTiiuru7p6en8/n8o0eP1tbW/t/n/y+/nR8bHWs2m1tbW7Ozs6urq7FYbHx8/MSJE9lslglLeCidTk9PT29vbz98+HBtfe3zzz/fzm+PjY01m818Pj8zM7O6uhqNRsfHx6empmjXo4O8LpZ0Ou33+0ulkiRJz549m7k783Thqd/vd3dkb7Vaw8PDFy5cuHjxYk9PTzAY9LpeHGluuxaLRUmSnj17Njsz++zps9fadXp6+tKlS7QrPJRIJKampvb29jqdzsLCwqOHj1aWV4LBoGVZpmm2Wq3e3t4LFy588MEHAwMDoVCIF/jgIbddq9Vqu93+uXadnp6+ePHi4OBgOBymXY8I8rpYwuFwOBw+e/asqqqhUEjTNMMwTNNUVTUSiSSTybNnz3788cejo6ORSIRf1fDWQbu625BpmtZqtTqdzkG7njlz5pNPPhkZGaFd4aFgMBgMBk+dOiXLcjgcdnfYaLfb7jCbSCQmJyc//vjjycnJZDLp8/m8rhdHmtuuJ0+elGU5Eom8sV2vXLkyOTnZ1dVFux4d5HURDQ4OJhKJU6dOVSqV/f39VqulaVogEHAzUFdXFzNAEMfg4GAymTx58iTtCpFlMplIJDIxMfGv//qv+/v7jUZD0zS/3x+JRBKJRFdXVyQS0TS+EyEEt11zudynn35Ku0Iir4spEolEIpFsNmtZVqPRcCcsdV33+/28WQLRuO2ayWTcdm2325qm0a4QTSgUCoVCPT09tm03Go1Wq3UwrpJ7IJqDdnUcp16v067gry40RVFCoZDjOPL3vK4I+Fluu7qH89GuEJaiKMFgMBAI0KgQnyzLoVCIdgV5XWiyLDNDiXcF7Yp3BY2Kd4iiKLz/AzoAAAAAEBd5HQAAABAXeR0AAAAQF3kdAAAAEBd5HQAAABAXeR0AAAAQF3kdAAAAEBd5HQAAABAXeR0AAAAQF3kdAAAAEJd26HesVqubm5uHflvgcO3t7TmOs7+/T7tCZLu7u5Zl1ev1zc1NVVW9Lgf4JQfturW1RbtCcG67el3Fb3X4eT2fz+/u7h76bYHD1W63bdumXSG4TqfT6XSKxWKtVvO6FuBXuO1aKBRoV4iv0+m0222vq/itDj+vB4PBRCJx6LcFDle1WjUMIxAIJJNJr2sBflatVmu3236/P5FIKAorGCE0t10DgQDtCvHV6/Ujndczmczx48cP/bbA4VpZWalUKplMZnJy0utagJ+1sbFRq9XS6fTJkydZYADB0a54h7x69eodehB0+Hld1/VgMHjotwUOl67rEu0K4fl8PlmWNU0LBoMEIAjuoF0DgYCmHX7AAA6R265eV/Fb8bgKAAAAEBd5HQAAABAXeR0AAAAQF3kdAAAAEBd5HQAAABAXeR0AAAAQF3kdAAAAEBd5HQAAABAXeR0AAAAQF3kdAAAAEBd5HQAAABAXeR0AAAAQl+Z1AXgzx3Ga3+t0Ooqi+Hy+cDjs9/t9Pp8sy14XCLyZYRiFQsGyrGQyGQwGdV2nXSGOg3G11WopiqLrejgcDgQCPp9PUZjAgqA6nU6hUDAMI5FIhMNhXddp16OGvC4ox3H29/cLhUKhUKjX65qmxePxTCaTTCY1TVNV1esCgTdwHKdery8uLnY6nVwu193draoq7Qpx1Ot1d1zd29tzw3omk0mlUqqqEoAgJsdx2u32ixcvSqVSLpfLZrO06xFEXheL4ziO4zx9+nTh6cLy0vLa2lqz2Wy327Is+/3+aDQ6Ojp65syZ4eHhgYEB/rlCKKZplsvlxcXFq1evOo4TCARCoVAoFPK6Lhx17ri68mJlYWFh6fnSixcvGo1Gq9WSZVnX9Wg0Ojg4eObMmdHR0cHBQZ/P53W9wA8cxymXy2tra19++WU+n1cUJRqNBgIBTSO/HS38vcVi27ZpmnNzc//xn//x6NGjleUVTdMURbEsy7Zt27bPnz//5z//+aOPPspkMqw0gAgcx3H/t9VqbW1tzc3Nff7557qunz59enBw0LZtrwvEUeeOq8+ePvv3f//3B/cfPHnyxH1KeTCu5nK5P//5z5988kk6nWZchQgOxlXLsnZ2dubn569du/bq1auJiYnx8fFkMul1gXjbyOtiefXq1dLS0p07d+afzB8bPHbp4qXBwcFkMmlZVj6fn5+f39/f//vf/67r+sDAQHd3dyKR8LpkHF2WZZmmaRhGs9kslUobGxtff/313bt3Nzc3h4aGvK4O+E6hUFhaWrp9+/b9e/dT6dS//du/DR471tPTY5nm7u7ukydPSqXS7Oysqqq9vb0jIyPJZJLIDq+4Py9brVaz2SyXyzs7O19//fXt27dXVlb8fr/X1cEz5HWxbG5ufvPNN3NzcxsbG5cvX/70009PnT7d399vWdbzxcWrV69++eWXN27cSCaT58+f1zSNvA4PtdvtWq1WKBR2dnZWV1efPXv2+eeff/vtt6ZpktchjkKhMDMz8/Dhw+Xl5ZMnT/7lL385ffr06NiYZZqvXr26evXqtWvXbty4IcvyuXPnotFoPB7npQt4pd1u1+v1Uqm0s7Oztra2srJy9erV27dvW5Y1NjbmdXXwDHldLFtbW7dv3261WpOTk2fPnj19+nRXV5eqKIosZ7PZjz76qFqtPnz4sFwuP3z4MB6Pj4yMeF0yjq7t7e2nT5/evXv33r17+/v7lUplY2PDNE33SS4giEKhcO/evb29vVwud+bMmfPnz3elUoqiyJqWSqUuXrzYbDafPHmyv7//+PHjdDo9MjJCXodXyuXy06dP7927d+fOnUqlUq1WNzY23LVbXpcGL5HXReEuo9zZ2Xn8+HFfX9/k5GQul/vxJGUymYxGo0tLS+l0utFoPHnyZHJy0sOCAfdx7fr6+uLioiRJjuNEo1FN03Z3d70uDZAkSXIcx7btUqm0sLCgKEoul8vlcqOjo999rKrRaHRycrJQKPT29pZKpcXFxVwuZ1mWruueFo6jq9Vq7e7ubmxsuBttSZIUCoWy2Szj6hFHXheFaZrNZnNvb293d9d9oeS1tS6KomialkwmR0dH3eUHlUrFq2oBSZIymcz09HQ2m/3kk08kSTJNs1gsPn/+/PPPP/e6NECSvh9Xq9Xq7u5uX1/f+Ph4KpX68QXuFjGxWGxoaKjdbm9tbZVKJR4QwUOpVOrc+XM9vT2XLl2ybdtxnGKxuLa2dvXq1Var5XV18Ax5XRSdTqdWq9Xr9UajEQqF+vr7wuHwjy+QZVlV1Ugkkslk3EnNarXqVbWAJEmxWMztVbNjSpLUbrfX19eDweCdO3e8Lg2QJEkyTbPRaNRqtWaz6ff7+/v7Y7HYjy+QZVmW5VAo1Nvbu7Gxsb6+XqlUyOvwUDgS9gf8md7M6VOnJUmybXtjY+Px48cPHjx49eqV19XBM+R1Ubh53f31HAgE4rG4z/+GbYB9Pl88HpdluVwuNxqNt14m8AP3eEhN02yfLUmSruvBUNDv97P2F4KwLKterxuGYdu23++Px+P+wBt22NA0LRaLaZpWqVRqtRp5HR5SZEXXdE3V3KMAbNsOhoL+gF/VGFePNPK6KCzLarVa7mI1TdcCwYCmvuGvo6pqMBhUFKXZbLoXA15x5yYlSXIDum3bmqYpqsJeeBDEwbjqSI6maYFgQNfesDBdVVX3d+Z3F5PX4Z03jquaqikyJyQeafz5RWE7dsfsWJYlSZKqqLqmv/H4UncVuyzLlmXxpQIAv8BxHNM0TcuUHElRlJ8bV2VZdk9Qct/7f/t1AsAvI68Lw5Ecx3EkIjgAHBpH+q3DquM4TIIAEBN5XSCyJMuSLH2/B9nPfXPwpQIAv5E7qErfj5xvHDx/4SMAEAF5XRTuq3vuejXLsjqdzhsfy1qW1W63HcfRNO2ND3YBAC53oYu7htC27Xa77a45fI3jOO6Qq6oq4yoAATEwieK1vP5z3yvuV45t27r+5oWYAADXwRZG0m8YVy3Lclex88I0ANEQ+ETh8/lisVgwGJQkqV6vF4tFwzB+eplhGIViwTTNVCr12gbtAIAf0zQtEokc7KlVLBbfuA1uu90ul8uGYSQSiWg0Sl4HIBr2cxSFruvRaDQYDGqaVq/Xt7e36/X6jy9wl1fWG/WdnZ2O2enp6YlEIl5VCwDic/N6KBTSNK3ZbObz+Vqt9to1tm03m81CsWAYRldXVywWI68DEA3z66LQNC0QCCSTyf7+/lqtNjc3VygUfrxpY6fTqVQq2/nttdU127LHxsZeO1gbAPBjqqoGAoFEIpHNZtvt9tzc3ObmpmmaB28HmaZZrVZ3dnbW19abRnNwcLCnp4e8DkA05HVRKIri8/nS6fT4+LhlWU+fPn358uX29na1Wm02m41Go1wuv3jx4sWLF1tbW7quHz9+vLu72+uqAUBc7vr1rq6u0dFRTdOePXv24sWLfD6/t7dnGEaj0ahUKqurqysrK5ubm5IjjY6OZjIZXg0CIBrWw4hlcHDwypUrf//73+/fv//NrW98Pt/k5GRPT0+r1VpdXb13796dO3cMw8hkMtPT0/39/V7XCwCi6+3tvXz5cqvVev78+ezsbDwRn5ycPDZ4rNVqbW9vz87O3r17t1KpnDx58ty5c8PDw+57/wAgDvK6WLLZ7MWLFzc3N5eXl1dfrn5hfpHP5zOZjGEY6+vrDx48KJfLQ0NDU1NTk5OT6XTa63oBQHTpdPr999/P5/Pz8/Nb+a0vvvgin88PDw0bhrG9vf3w4cPNzc3e3l53XO3t7WV+HYBoyOtiSafTgUCgXC7Lsvztt9/OzszOP5nXdd22bcuyLMvK5XKXLl364IMPenp6AoGA1/UCgOgSicTk5GS1WjVNc25u7tHDR88XnwcCAXdQtW27r6/v8uXLH3zwwcDAQDgcZv06ANGQ18USDAaDweDp06dVVY1EIvF4vNlsmqYpy3IwGEwkEqdPn/7www+Hh4dDoRCTQBCKoijhcHhgYODy5cuyLPf19YVCIaIPPBcIBAKBwNTUlCzL7jZchmG0221Zlv1+fyKRmJiY+PDDD3O5XCKR0HXd63qBfxAKhnp7ey9cuDA0NDQ8PByJRFiydQSR10U0ODiYSqXOnj27v7+/v7/farXc3WMikUgsFovFYoFAgLAO0Wia1p3uDr8fHhkekSQplUq5++h5XRcgSZKUyWTi8fjU1NRf/vKX/f39RqOhaZrf749EItFoNB6Pu9vpel0m8A8URUkmk8FgMJPJdDqdrq6uSCTCr8ojiLFJRO4seyqVsiyr2Wx2Oh1VVXVd9/v9xHQIS5Zln8/n8/kSiYTXtQCvc2fZk8mk4ziNRqPVah2Mq8xWQmTuuBqLxbwuBF4irwtNVdVQKOQ4jvw9rysCgHebu7wwEAi4IyrjKgDxkddFx4Q6ABwuxlUA7xbGLAAAAEBc5HUAAABAXOR1AAAAQFzkdQAAAEBc5HUAAABAXOR1AAAAQFzkdQAAAEBc5HUAAABAXOR1AAAAQFzkdQAAAEBc2qHfsVKprK2tHfptgcO1u7vrOM7e3h7tCpEVi0XLsvb399fW1lRV9boc4JcctOv6+jrtCsEVi0XTNL2u4rc6/Lyez+dLpdKh3xY4XJ1Ox7Zt2hWCM02z3W4Xi8Vqtep1LcCvoF3xDnHb1esqfqvDz+vRaLSrq+vQbwscrkqlUiwWI5FIKpXyuhbgZ+3v7xeLxXA4nEqlFIUVjBCa266hUCidTtOuEJzbrl5X8Vsdfl7PZDJTU1OHflvgcC0tLZXL5Ww2S7tCZOvr69VqNZ1Onz59mgUGEJzbrt3d3bQrxLexsfEOPQg6/Lyuqqqu64d+W+Bwud8liqLQrhDZjxuVAATBHbSrpmmadvgBAzhEqqrKsux1Fb8Vj6sAAAAAcZHXAQAAAHGR1wEAAABxkdcBAAAAcZHXAQAAAHGR1wEAAABxkdcBAAAAcZHXAQAAAHGR1wEAAABxkdcBAAAAcZHXAQAAAHGR1wEAAABxaV4XgF/XbDbz+bxt211dXaFQyOfzybLsdVHADxzHaXyv3W4riuL3+yORSCAQ8Pv9tCvEcdCorVZLURRd1yORSDAY9Pv9isIEFgTV6XTy+Xyz2ezq6opEIj6fj3Y9asjronMcp16vLy4umqY5MTHR09OjaZqqql7XBfzAcZz9/f2dnZ2dnZ1arabrejwez2azXV1duq7TrhBHvV53G7VSqbhhPZvNptNpTdMIQBCT4zitVuvFixfFYvH48eOqqqqqSrseNeR1oXU6nVKptLCw8Le//U1RlGAwGA6Hw+Gw13UBkiRJjuPYtj0/P//48ePnz5+vrq4ahtHpdCRJcufXx8bGzp07NzY2NjQ0xLcLvOI4juM4z58/f/z48eLi4srKSrPZbLVasiy7kf3YsWPnzp3L5XJDQ0N+v9/reoEfOI5TKpVevnz5xRdf5PN5VVVjsVgwGNR13evS8FaR14XjfM+27Vqttrq6ev/+/WvXroVCofPnzw8NDdm27XWNgCRJUqfTabfbDx89/K//+q+FhYX1tXWfz6eqqm3bnU6n0+mcOHFid3fXsqxMJsN6A3jFNM12u72wsPAf//kfT548WXq+5PP5dF23LMs0zU6nMzQ0VCwWTdNMp9O6rtOo8NaPY0Cn09nY2Hj06NH169fz+fypU6eOHz/e1dXldY1428jrYnG/P5rNZqPRKBQKa2trX3311d27d7e2tsbGxryuDvgHm5ubi4uLd+/cffz48cjwyP/68H8NDw93pVKWaebz+UePHpXL5evXr2uaduzYsUwmk0wmvS4ZR1GhUHj27NntO7fv37/fl+17/9/eHxoaymQylmWVSqW5ubmtra2ZmRlZlrPZ7OjoaFdXF5EdXrEsy7IswzAajUaxWNze3v7qq69u3bq1srISCoW8rg6eIa+LxTCMarWaz+fz+fza2tri4uK1a9eePHliWRZ5HaLZ2tq6devW/Px8Yafwvz/5359++unJkyf7+vosy1peXk6n019++eWXX36ZSqWmp6d9Ph95HZ4oFAqzs7OPv338auPV9PvTbqMOj4xYprm1tZXJZL788str167puv7ee+9Fo1EaFR5qt9vVanVnZyefz6+vr798+fLatWszMzOmaY6Pj3tdHTxDXhdLPp+fn5+/devWzMxMvV7f29vL5/OWZTmO43VpwOs2Nzdv3bplGMbk5OTZs2fPnDmTSCQUVXXnKa9cubK/v3/v3r3d3d0HDx4kEgl+c8ITbl6vVCq5XO7MmTPvvfdePJFQFEXW9VQqdenSJcMw5ubm9vf3Hz9+3N3dPTY2xkvS8EqpVJqfn7979+4333xTrVZrtdrW1pZpmsSAI468LhbTNBuNRrVaLZfLkiT5/f5sNhuNRguFgtelAT+wbduyrGKx+PTp0/7+/uPHj4+Ojvb393/3sarG4/FQKLS4uNjT02MYxsLCwsmTJz0tGUeR4ziWZZXL5efPn2uaNj4+PjY2Njg4+N3HshwOh8fHx91Z9kKhsLS0NDk5yTtC8JBlWc1ms1qtlkol0zRVVe3p6SEGgLwulkwmc+HChcHBwT/+8Y+SJHU6nWKxuLCw8Nlnn3ldGvCDTqfTbDb39vZ2d3cnJiZyuVwikfjxBe7OG4lEYmRkxF3ctbu761W1OLIOZkB2d3cHBgZyudxrL+rJsqxpWiwWGxoaMgxja2urWCwykQkPpVKpc+fOZbPZDz/80LZtx3EKhcLLly8/++yzRqPhdXXwDHldLJFIJBAM9Pb2mqYpSVKr1drY2HAc5+bNm16XBvzANM1arVav1w3DCIVC2Wz2tW1GZVmWZTkcDvf29haLxVevXlWrVa+qxZHl5nW3Uf1+f7YvG41Gf3yB26jBYLC7u3t1dXV1dXVvb4+8Dg8FQ8GsL9vd3X38+HFJkmzbXt9Yj0Qjd+7cIa8fZeR1sSiKosu6pmruF4amacEQB+9BOJ1Op16vt1otSZICgUAsHvP5fT+9zOfzxeNxWZbL5TLfNHj7LMuq1+vNZtO2bZ/fF4/HA4HATy9zp9h1Xd/b26vVauR1eEiRFVmXVU31+XySJNm2HQqFAoEA71QcceR1sbiTPQf/aVmWqqqKqnCiO4RiWVar1eqYHUmSNE0L+AOa+obBRFXVQCCgKIphGO4jI+Btsiyr3W53zI7jOJqqBfwBTXtzo/r9flVV2+12p9Mhr8NDsizLkizJkqRIkiTZtq2qqqqoxIAjjllbAL+b7dgds+PuXKQoiqa/+Sx3d3GwoijuKsy3XyeOOMdxOmbHMi1JkhRFcbvxp5fRqAAER14H8Ps5kuT843/+wrWOQwaC4A5OlPS6EAB4A/I6gN9N/m7lliz9WtBhwhLecrtUkiT3dPc3diNhHYDgyOsAfjdFUXRdV1VVlmV3ibBlWT+9zP3Itm1d13lnGm+f26iapv1yozqO0+l0bNvWNI23+gAIiG9QAL+boig+n899dc80TcMwfi6vt1ot27Z9Ph8xCG/fQV6Xvu/GN773fPDRwa/Qt14pAPwS8jqA383n80WjUXdrvHq9XiqVDMP46WVGyygUC6ZpplKp1zZoB94CTdMikUgoFFIUpdlsFovFN+4r2m63S6WS0TISiUQ0GiWvAxANeR3A76brejQaDYfDPp+vXq9vbm6+tmu1ew58vVbf3t7umJ3e3t7XzqkB3gI3r4fDYb/fbxjG5uZmtVr9aaM2mo1CoWA0jVQq5Z4Y4GHNAPBT5HUAv5u7sXoikejv76/X63Nzczs7Oz9+ma/T6VQqlXw+v7a6Zlv26OhoKpXytmYcQYqi+P3+eDyeyWTa7fbc3NzW1pZlWbZtuxdYllWtVne2d9bX1w3DGBwc7Onp4V0LAKJhVALwu7nLgg9OzH727NnyyvLa2lq5XK7X6/v7+9vb24uLi8vLy9vb2z6fb2pqqqenx+uqceS4jZpKpXK5nM/nW1paWl5eXl1dLZVKbqMWCoWlpaXFxcWtrS1ZlsfHx7PZLHkdgGg43xTA/9DAwMBHH330xRdfLC8v3/rmlqZpJ0+czGQyhmGsrq7evXt3dnbWMIxMJjM9PT0wMOB1vTiient7L1++3Gg0nj59OjM7E4lGTp44OTQ0ZBhGPp+/e/fuzMxMpVI5duymrvFJAAAOPUlEQVTY2bNnh4eHyesARENeB/A/lM1m//CHP2xubq6urm5ubv79y79v57d7e3sNw3j16tW3335brVYnJiZOnTqVy+W6urq8rhdHVCqVOn/+fD6fX1xcLJfKbqMeO3bMMIxCofDtt9/u7OwcO3bs9OnTExMT3d3d5HUAoiGvA/gfSqfT4XC4UqkoinLv3r2ZmZm5uTlN09yF7IqiTE5OXrly5cKFCz09Pe5mMsDbl0wmA4FArVazbfvevXsPHz5cWFjQdf2gUYeGhq5cufKHP/xhcHAwHA7zvikA0ZDXhaYoSjQSHR4e/uMf/6iq6tDQUCQSYe4HgvD7/X6/f2pqSlXVeDyezWabzaZpmrIsB4PBRCIxNTV16dKlY8eOBYNB+hZe8fl8Pp9vYmJCkqRYLNbV1WUYRqvVOngbdXx8/NKlS6Ojo9Fo1N2sHRCELMvhcLivv++jjz6amprK5XKxWIwuPYL4kwtN07R0Oj0dnT4+cVySpFgs5vf7OXcGQnG31Dh//rz7Ap9hGLquBwKBcDjsbn3t8/kI6/BcJpNJJpOnT592G7XRaGia5vf73Q0f3T0fiUEQjSzLXcmuSDgyODBommYsFgsGgzTqEcSfXGiyLOu6rut6NMLe1RCUO8sei8UsyzIMo9PpqKrqJiFiOsThzrJHo1HHcZrNZrvdVhTFbVQmQSAyTdM0TQuFQl4XAi+R1wEcDlVVf/yNwiJgiMldrxUIBNwWpVEBiI+8DuDQEH3wTpBlmV4F8A7haTUAAAAgLvI6AAAAIC7yOgAAACAu8joAAAAgLvI6AAAAIC7yOgAAACAu8joAAAAgLvI6AAAAIC7yOgAAACAu8joAAAAgLu3Q71gul1dWVg79tsDhKhaLjuPs7u7SrhBZqVQyTXNvb+/FixeKwgwLhHbQri9fvqRdITi3Xb2u4rc6/Lyez+cLhcKh3xY4XJZl2ba9tbVFu0Jktm2bplksFiuVite1AL+CdsU7xG1Xr6v4rQ4/ryeTyXQ6fei3BQ5XuVze2dlJJpPd3d1e1wL8rL29vUKhEIlEenp6mLCE4KrV6s7ODu2Kd4Lbrl5X8Vsdfl7PZDInT5489NsCh2txcbFYLGYymVOnTnldC/CzVldXK5VKd3f3mTNnVFX1uhzgl6ytre3u7qbTadoV4ltbW3uHHgQdfl6XZVmW5UO/LXC43C6lXSG4g/6kV/GuOBhdvS4E+CXvVovyuAoAAAAQF3kdAAAAEBd5HQAAABAXeR0AAAAQF3kdAAAAEBd5HQAAABAXeR0AAAAQF3kdAAAAEBd5HQAAABAXeR0AAAAQF3kdAAAAEBd5HQAAABCX5nUB+HWNRmNzc9O27XQ6HQqF/H6/LMteFwW82UG7plKpcDhMu0JM7XZ7c3Oz2WymUqloNOr3+xWFCSyIpdFo1Ov1Wq1mGIaqqj6fLxKJuDFAVVWvq8NbRV4XnW3b1Wr16dOnnU7nxIkTvb29uq7zDxVism17f3//oF1VVaVdISDbtpvN5tLSUqlUOnHihKZpmqaR1yEOy7IsyyqXy9vb24VCoVKp6LoeDoez2Ww6nU4mk+4vTGZDjg7yutA6nU6hUHjy5Mlnn32mKEo0Go1EIuFwmAAEAXU6nWKx+OTJk7/97W+SJEUiEdoVArJtu1gsrqysXL16dXt72+fzxePxUCik67rXpQGS4zi2bT9bfPbwwcNnz54tLS0ZhtHpdCRJ0jQtHA4fO3bs/fffn5qaGhkZCQQCXteLt4S8LhbHcSRJsm3btm3TNGu12vLy8uzs7I0bNyKRyAcffDAyMuJeA3jup+26tLR07969GzduBIPBixcvjo6O0q4QgZuBHMcxTbPVar148eL+/fs3b94sFovT09NTU1OWZXldIyBJktTpdBqNxvz8/H//3/9eXFxcfbkaCAR8Pp9lWaZpNpvNvr6+SqViWVYqlXIfDXldMt4G/sxisW270+k0m816vb6zs/Py5csbN27cvXt3a2srl8t5XR3wD15r19XV1evXr8/MzGxubo6NjXldHfCdg6DTbDZ3dna2trauX79+69atFy9eRKNRr6sD/kGhUJifn79z+879e/ePHTt28YOLIyMj2b4+yzRLpdKDBw/W1tbu3bunKEp/f38ul0ulUizlOgrI62JpNBq7u7ubm5uvXr3a2NhYWlq6cePGwsICcz8Q0Gvtury8fP36ddoVojEMo1KpbG1tuY26trZ2/fr1Bw8emKZJXodoCoXC7Ozs/Px8sVi8dOnSP//zP09OTg4ND9uWlc/n0+n0tWvXvvjiC7/f/95778VisWQySV4/CsjrYsnn848fP7558+adO3cajUatVisUCpZlsagAAtre3v7222+//vrr27dv064QVqlUevz48TfffHPz5s1arVav1wuFgmmaNCoEVCwW7927V6lUxsfHz5w5c/78+VgspiqKIstdXV0XL15sNpsPHz7c399/8uRJb29vLpdjScxRwN9YOI7jSLKkKIq7bVM8Hq9Wq5ubm17XBbzOcRxHciTpu3YNh8Nuu25tbXldGvAPHMeRZVlRlFAoFAqFotFovV5nXIVQbNu2LGt3d3d5eVnX9VwuNzIy0tfX534qy3IoFBoaGsrlctlsNp/PLy8vT01N2bbtbdl4O8jrYslkMv6Af3h4+P/86f9IktTpdHZ2dp48efLXv/7V69KA12UymUAgMDw8/Kc//Un6vl3n5+dpVwgllUqdO39uYHDg448/dt863d7eXllZ+etf/1qr1byuDviOZVn1en1vb69SqQwMDLhr0398gaIomqbFYrGhoaF6vZ7P50ulEnn9iCCviyUUCvn8vnQqbZqmJEmtVmt9Y73RbITDYa9LA17nHtuRSqXMMVOSpFa7tbG+YRgG7QqhBINB3acnk8mR4RFJkmzbXl9fVzU1Fo+R1yEO0zQbjUaj0TAMw+fz9fb2RiKR165RFCUQCKTT6UAgkM/n9/b2WNZ1RJDXxaIoik/xOZrj/gvUNC0UDPn9fkXlbRIIR1EUd77nu3bVtWAoyDmREI2iKLqsa6rm+L7bgTQYCgYCAU4GgFDc+fVms+k4jt/vj8Vjb9xeXdO0aDSqaVqlUqnVauT1I4K8Lhb3rLKDE8tUVVVURVEUWeIMMwjn9XZVVEVRZEXmyD2IRpZ/aEtZlr/rVcZViMS27Xan7b4Jraqq3+9XtTf8pFQUxefzqara6XR4bfroYBoMAADAY+7Bc6ZlSu5DIU1XlTfndU3TFEVxHIewfnSQ1wEAAATifO/nPpK+P2EaRwR5HQAAwGOyLMuSfLBMy93L6I1XMrN+BJHXAQAAPCbLsq7r7uFHlmW12+03nhVt27b7kaZpvDN9dJDXAQAAPOa+SKrruizLpmkahuHu7Pway7JarZZpmgcXv/1S8faR1wEAADzmbtQYCoUURWk2m8VisV6v//SydrtdKpUMw4jH45FIhLx+RJDXAQAAPKZpWigUCofDgUDAMIyNjY3XjkNyHMc0zXq9vlPYaRrNdDqdSCTI60cEeR0AAMBjqqoGAoF4PJ7NZjudztzc3ObmpmVZtm27F5imWa1Wd3Z21tfWjaYxODjY09PD+XRHBOclAQAAeEyWZU3TUqnU8ePHnz179uLFi+fPnz9//jyeiEcjUcuyarXa6urqwsJCPp8Ph8Pj4+N9fX28cnpEkNcBAACE0NPTc/ny5Xq9/vjx49nZ2XAkfPrU6dHRUcMwtra2bt++PTMzs7u7OzQ0dO7cueHhYfL6EUFeBwAAEEIqlTp37tz29vbKykqtVrtx40Z+Kz84OGgYRqlUevr06e7u7sTExHvvvZfL5dLpNOthjgjyOgAAgBASiUQwGGw0Go7j3L59e3Z2dv7JvKqqtm27G7SPjY390z/90wcffDAwMBAOh3nf9IggrwtNUZVYLJYbz3366aeKooyNjUWjUX5MQ0yqqsZj8dx47l/+5V9kWaZdIaxINHLs2LE//elP5XJ5amoqHo+7h9QAntN1Xdf10dFRx3Hi8Xh/f3+z2Wy1Wu7u7IlEYmRk5MKFCyMjI5FIhMUwRwcjlNA0VetOdyfiiZMnT8qyHAgEdF0nAEFMqqqm0+l4PH7ixAnaFcJSFKUr2RWLxsZGxyzLCgaDPp+PRoVQMplMOp0+d+5cq9WqVqv1el3Xdb/fHw6Hg8Gg3+9ndD1qyOtCk2VZVVV3jyevawF+Be2Kd4XbqH6/3+tCgDfTNE3TtEAg4DhONBptt9uKomia5vP5mFM/msjrAAAAIpJlORgMBoNBrwuBx3iYAgAAAIiLvA4AAACIi7wOAAAAiIu8DgAAAIiLvA4AAACIi7wOAAAAiIu8DgAAAIiLvA4AAACIi7wOAAAAiIu8DgAAAIiLvA4AAACISzv0OxaLxcXFxUO/LXC4dnZ2HMcplUq0K0RWLpdN06xUKs+fP1cUZlggNLddd3d3l5aWaFcIbnd3t9PpeF3Fb3X4eT2fz29vbx/6bYHD5TiObdu0KwTnNmqhUCiVSl7XAvwKt12LxWK5XPa6FuBXuO3qdRW/1WHm9XQ6ferUqXfo/zwAAACOrFQq9U48C5Idx/G6BgAAAABv9g78pAAAAACOLPI6AAAAIC7yOgAAACAu8joAAAAgLvI6AAAAIC7yOgAAACAu8joAAAAgLvI6AAAAIC7yOgAAACAu8joAAAAgLvI6AAAAIC7yOgAAACAu8joAAAAgLvI6AAAAIC7yOgAAACAu8joAAAAgLvI6AAAAIC7yOgAAACAu8joAAAAgLvI6AAAAIC7yOgAAACAu8joAAAAgLvI6AAAAIC7yOgAAACAu8joAAAAgLvI6AAAAIC7yOgAAACAu8joAAAAgLvI6AAAAIK7/DwjTNF/P4LvhAAAAAElFTkSuQmCC;" vertex="1" parent="1">
                    <mxGeometry x="30" y="500" width="338.5" height="136.49" as="geometry"/>
                </mxCell>
                <mxCell id="251" style="edgeStyle=none;html=1;exitX=0;exitY=0.25;exitDx=0;exitDy=0;exitPerimeter=0;endArrow=none;endFill=0;strokeColor=#000066;entryX=0;entryY=0.25;entryDx=0;entryDy=0;entryPerimeter=0;" edge="1" parent="1" source="246" target="247">
                    <mxGeometry relative="1" as="geometry">
                        <mxPoint x="400" y="330" as="targetPoint"/>
                        <Array as="points">
                            <mxPoint x="322" y="195"/>
                            <mxPoint x="322" y="250"/>
                        </Array>
                    </mxGeometry>
                </mxCell>
                <mxCell id="246" value="" style="verticalLabelPosition=bottom;shadow=0;dashed=0;align=center;html=1;verticalAlign=top;shape=mxgraph.electrical.logic_gates.logic_gate;operation=xor;direction=west;" vertex="1" parent="1">
                    <mxGeometry x="210" y="140" width="100" height="60" as="geometry"/>
                </mxCell>
                <mxCell id="252" style="edgeStyle=none;html=1;exitX=0;exitY=0.75;exitDx=0;exitDy=0;exitPerimeter=0;endArrow=none;endFill=0;strokeColor=#CC6600;" edge="1" parent="1" source="247">
                    <mxGeometry relative="1" as="geometry">
                        <mxPoint x="500" y="160" as="targetPoint"/>
                        <Array as="points">
                            <mxPoint x="500" y="305"/>
                        </Array>
                    </mxGeometry>
                </mxCell>
                <mxCell id="253" style="edgeStyle=none;html=1;exitX=1;exitY=0.5;exitDx=0;exitDy=0;exitPerimeter=0;endArrow=none;endFill=0;strokeColor=#000000;" edge="1" parent="1" source="247">
                    <mxGeometry relative="1" as="geometry">
                        <mxPoint x="70" y="320" as="targetPoint"/>
                    </mxGeometry>
                </mxCell>
                <mxCell id="247" value="" style="verticalLabelPosition=bottom;shadow=0;dashed=0;align=center;html=1;verticalAlign=top;shape=mxgraph.electrical.logic_gates.logic_gate;operation=and;direction=west;" vertex="1" parent="1">
                    <mxGeometry x="222" y="290" width="100" height="60" as="geometry"/>
                </mxCell>
                <mxCell id="254" value="Sum" style="text;html=1;align=center;verticalAlign=middle;resizable=0;points=[];autosize=1;strokeColor=none;fillColor=none;" vertex="1" parent="1">
                    <mxGeometry x="340" y="130" width="40" height="20" as="geometry"/>
                </mxCell>
                <mxCell id="255" value="Carry" style="text;html=1;align=center;verticalAlign=middle;resizable=0;points=[];autosize=1;strokeColor=none;fillColor=none;" vertex="1" parent="1">
                    <mxGeometry x="335" y="277" width="50" height="20" as="geometry"/>
                </mxCell>
            </root>
        </mxGraphModel>
    </diagram>
</mxfile>